<svg xmlns="http://www.w3.org/2000/svg" viewBox="0 0 436.76 35.04"><path d="M202.62 35.04h-11.36c-5.33 0-10.2-3.01-12.59-7.78l-.81-1.62-2.58-4.96-6.12-12.29c-1.06-2.12-2.38-3.44-4.85-3.44s-3.74 1.31-4.8 3.44l-1.59 3.17-.03.07-4.54 9.05-2.53 4.96-4.7 9.4h-5.97l10.9-21.8.84-1.67 2.17-4.33c2.22-4.5 4.9-7.23 10.26-7.23s8.04 2.73 10.31 7.23l2.17 4.33.74 1.48 3.53 7.07c-.05-.76-.07-1.55-.07-2.36 0-1.3.06-2.52.18-3.68.93-9.04 5.63-13.61 16.3-13.61h27.25v5.4h-27.25c-6.11 0-8.91 1.93-10.07 5.7-.06.18-.11.37-.16.57 0 .02-.01.05-.02.07-.04.18-.08.35-.12.54v.06a5.6 5.6 0 0 0-.12.59v.03c-.04.21-.07.43-.1.65-.14 1.12-.19 2.34-.19 3.68 0 7.84 1.97 11.83 10.77 11.83h17.85c3.56 0 6.82-2.01 8.41-5.2l5.57-11.15.84-1.67 2.17-4.33c2.22-4.5 4.9-7.23 10.26-7.23s8.04 2.73 10.31 7.23l2.17 4.33.84 1.67 6.75 13.51V.46h28.21c7.48 0 12.03 2.27 14.4 6.73 2.37-4.47 6.92-6.73 14.42-6.73h30.44c2.07 0 2.98 1.06 3.84 2.07l7.57 9.04 2.1 2.51 6.03 7.2a.91.91 0 0 0 1.39 0l6.05-7.2 2.1-2.51 7.47-8.89c2.57-2.76 6.98-3.24 9.71-.64l.68.65L399 4.67l2.38 2.64 6.66 7.39s.06.09.09.14l.47.53c.16.19.33.38.5.57l.29.33c.78.62 1.74.97 3.01.97h.26c1.27 0 2.23-.35 3.01-.97l.29-.33c.17-.19.34-.38.5-.57l.47-.53s.06-.09.09-.14l6.66-7.39 2.38-2.64.13-.13L429.9.35h6.9l-2.24 2.53-3.61 4-.02.06-6.78 7.65-4.02 4.46c-.05.08-.11.16-.16.24l-.81.92c-.28.33-.57.66-.87.99-.17.19-.34.38-.51.58-.71.56-1.5.99-2.41 1.28v11.98h-5.64V23.06c-.91-.29-1.7-.72-2.41-1.28-.17-.19-.34-.39-.51-.58l-.87-.99-.81-.92c-.05-.08-.11-.16-.16-.24l-4.02-4.46-6.78-7.65v28.11h-5.46V8.38l-14.59 17.51c-.92 1.09-2.28 1.72-3.71 1.72s-2.78-.63-3.71-1.72L350.26 6.52v25.73a2.78 2.78 0 0 1-2.78 2.78h-27.75c-7.49 0-12.04-2.25-14.41-6.72-2.38 4.48-6.94 6.72-14.41 6.72h-22.46c-4.64 0-8.89-2.62-10.96-6.78l-1.31-2.63-2.58-4.96-6.12-12.29c-1.06-2.12-2.38-3.44-4.85-3.44s-3.74 1.31-4.8 3.44l-1.59 3.17-.03.07-4.54 9.05-2.53 4.96-1.23 2.47a12.557 12.557 0 0 1-11.22 6.94h-14zm136.67-19.77v5.01h-30.44c.4 6.22 3.13 9.4 10.82 9.4h25.08V5.76h-25.08c-5.99 0-8.97 1.97-10.18 5.8-.06.18-.11.37-.16.57 0 .03-.01.06-.02.09-.04.16-.08.32-.11.49 0 .05-.02.09-.03.14l-.09.48c0 .04-.01.08-.02.12l-.09.62c-.05.39-.09.79-.11 1.2h30.44zM268.2 29.58h22.65c8.85 0 10.77-4.04 10.77-11.83 0-1.33-.06-2.56-.2-3.68l-.09-.65v-.03c-.04-.19-.07-.38-.11-.57 0-.03-.01-.05-.02-.08-.03-.17-.07-.34-.11-.5 0-.04-.02-.07-.03-.11-.05-.19-.1-.38-.16-.56-1.16-3.74-3.97-5.7-10.06-5.7h-22.65v23.71zM83.28 35.04 118.32 0h21.82l-35.13 35.04H83.28zm34.87-5.95h1.6c.55 0 .97.1 1.24.31.28.21.41.51.41.93s-.06.72-.17.92c-.11.2-.3.36-.57.48l.8 1.61h-.89l-.73-1.5h-.86v1.5h-.84v-4.25zm.83 2.09h.86c.26 0 .45-.06.57-.17.12-.11.17-.29.17-.55 0-.48-.3-.72-.9-.72h-.7v1.43zM35.36 19.96c6.12-5.94 8.61-6.84 20.29-6.84h46.57L115.62 0H53.88C38.25 0 33.83 1.49 24.66 10.56L0 35.04h19.82l15.54-15.08zm20.57-4.75c-11.76 0-13.6.9-18.94 6.23L23.4 35.03h18.38l4.37-4.37c2.89-2.89 4.18-3.16 10-3.16h31.78l12.28-12.28H55.93zm63.83 12.16c1.11 0 2.02.37 2.74 1.11.72.74 1.08 1.65 1.08 2.73s-.36 1.99-1.08 2.72c-.72.73-1.63 1.1-2.73 1.1s-2.02-.37-2.76-1.11c-.73-.74-1.1-1.65-1.1-2.73s.36-1.99 1.09-2.72c.73-.73 1.64-1.1 2.75-1.1zm2.27 1.54c-.61-.63-1.37-.94-2.28-.94s-1.66.31-2.28.94c-.61.63-.92 1.39-.92 2.28s.31 1.65.92 2.28c.61.63 1.37.94 2.28.94s1.67-.31 2.28-.93c.61-.62.92-1.38.92-2.28s-.31-1.66-.92-2.29z" style="fill:#fff"/></svg>