<svg width="111" height="43" fill="none" xmlns="http://www.w3.org/2000/svg"><path d="M1.328 1.111c.217.157.536.613 1.072 1.034.872.685 2.352 1.584 3.375 1.994 3.591 1.433 6.839 1.174 13.13.66 5.506-.454 7.932-.564 13.179 1.994 1.683.825 6.836 4.21 8.803 4.21 2.367 0 4.378-.396 7.471-1.213 6.952-1.834 13.368 1.986 20.172 1.911 4.686-.052 8.943-.368 12.606-2.09 3.67-1.721 9.28-4.471 14.302-5.764 1.49-.382 2.222-.39 3.339-1.009C100.289 2 101.96.958 102.759.371c.421-.31.624.468.646.616.085.616-.289.963-.308.872-.058-.278-.173-.575-.476-.533-.418.055-.695.286-1.146.638-.674.522-1.015 1.408-2.53 2.277-1.232.71-4.32 1.405-5.921 2.161-2.918 1.386-5.528 3.603-6.762 4.265-4.013 2.162-10.69 3.086-14.309 3.14-5.189.083-13.475-2.84-16.11-3.483-3.134-.762-5.001-.482-7.793.154-3.498.792-6.182 1.298-7.169 1.265-2.22-.075-5.305-2.005-7.356-3.045-2.497-1.26-5.327-1.223-9.988-1.476-3.79-.204-6.166.566-12.249-.207-5.497-.7-9.61-3.949-10.39-5.53-.26-.53.037-.657.43-.377m9.515 7.577c-1.21-.55-2.184-1.13-2.239-.982-.09.24 6.683 4.24 11.512 4.755 5.761.613 10.664-1.224 14.176-.817 2.203.253 3.545 1.061 4.05.976.515-.088-2.548-1.29-3.61-1.378-.676-.055-2.134-.17-4.554.163-3.542.486-8.115.376-9.595.203-3.055-.36-5.67-1.15-7.042-1.683-.916-.355-1.923-.883-2.695-1.235m35.697 13.277c-.462-.462-1.611 1.736-3.157 2.533-1.883.974-4.471 1.499-6.844 1.755-2.374.255-3.248.596-5.957 2.293-2.714 1.694-2.948 3.264-5.58 5.805-2.114 2.046-3.418 2.71-4.455 3.215-1.666.814-2.675.264-1.177-1.482 1.065-1.243-.871-.479-.871-.479s-1.026.427-1.675 2.423c-.402 1.246 1.556 1.141 2.447.952 1.395-.3 2.107-.834 3.295-1.595 1.185-.762 2.458-2.203 3.644-3.644 1.185-1.438 1.914-2.698 3.608-4.054 1.694-1.355 2.593-1.606 4.202-2.37 1.611-.762 6.256-1.031 8.712-1.881 2.455-.847 3.811-3.473 3.811-3.473m1.983-2.514c.294.327 1.985-.803 3.58-1.251 2.426-.682 2.632-.787 5.462-.594 2.087.143 3.976.536 6.009 1.834 2.717 1.735 2.986 2.065 4.85 3.273 1.717 1.11 5.278 2.145 7.423 2.398 2.128.25 2.47.264 2.846.055.31-.17.226-.561-.539-.479-.308.036-1.752-.118-3.919-.987-1.127-.451-2.057-.872-3.382-2.142-1.656-1.582-2.021-2.074-5.277-3.892-3.24-1.81-5.786-1.977-8.575-1.804-3.217.196-8.66 3.3-8.475 3.595m43.642-4.623c.872-.655 1.782-1.815 4.576-2.214 2.043-.294 3.55-.184 5.896.325 1.301.28 2.846.492 3.292.492.324 0 .58-.388-.27-.462-1.133-.102-2.659-.443-3.745-.671a16.642 16.642 0 0 0-4.815-.234c-1.895.198-3.526.932-4.477 1.735-.875.74-.76 1.252-.462 1.026m17.888-2.414c.388-.344 1.084-.974.55-1.397-.635-.506-1.735-.748-2.909-1.067-1.02-.275-2.368-.28-3.949-1.444-.572-.418-1.056-1.056-1.331-1.653-.404-.883-.289-1.611-.242-1.985.11-.883.327-1.425.36-1.551.085-.339-.242-.54-.987.646-.677 1.08-1.265 1.994-.888 3.193.335 1.061.987 1.806 1.823 2.25 1.045.552 1.512.5 2.912.736 1.524.253.941.179 2.041.432s1.696.476 2.062.69c.481.28.028.602-.14 1.067-.168.457.319.424.698.085M80.96 25.328c-.196.203-.091.869.09 1.344.196.52.696 1.087 2.258 1.925 1.389.746 3.836 1.095 5.803 1.903 1.963.809 3.962 2.013 5.764 3.21 1.446.962 3.852 3.22 3.811 2.769-.016-.182-.217-.512-1.177-1.361-.586-.515-1.611-1.433-2.986-2.291-3.391-2.126-5.228-3.135-8.336-3.8-1.903-.41-3.393-1.178-4.188-1.97-.976-.979-.795-1.977-1.037-1.727m9.422-8.258c-.399 1.4-.803 2.461-2.896 4.045-1.276.966-1.306 2.85-.8 3.694.509.847 1.556 1.947 3.248 2.879a90.493 90.493 0 0 1 4.29 2.513c1.347.85 3.533 2.36 5.142 3.545a24.487 24.487 0 0 0 3.699 2.247c.844.401 1.259.39 2.035.517 1.138.181 1.598.31 1.534.905-.044.429-.291.61-.981.693-.79.09-1.29.063-1.733 0-.33-.047-.885.027-.346.26.236.103 2.029.834 3.544.672 1.414-.154.539-2.34-.253-2.602-.69-.228-1.38-.352-2.42-.544-1.243-.231-2.365-.847-2.959-1.218-1.325-.83-2.43-1.584-3.616-3.025-1.188-1.441-3.446-3.284-5.478-4.219-2.032-.932-2.964-1.78-3.388-2.962-.423-1.188-.036-1.834.729-3.104.764-1.274.811-2.104.998-2.995.35-1.65-.176-1.909-.346-1.3m-51.618.61c.528-2.01 1.614-3.732.792-3.24-.825.492-2.104 1.56-3.399 5.291-.55 1.592-1.152 2.497-2.626 3.29-1.579.846-4.092 1.173-5.05 1.798-1.118.728-2.54 3.665-3.01 4.71-.454 1.007-2.676 3.531-2.429 3.449.248-.083 2.423-2.217 2.913-3.303.464-1.034 2.433-4.031 3.594-4.469 1.108-.418 3.646-.822 4.958-1.201 1.16-.339 2.55-1.153 3.308-2.536.671-1.226.644-2.64.946-3.792M49.91 36.267v-2.005h-.275c0 .11-.044.198-.129.264s-.236.1-.45.1h-7.077v.274c.267 0 .4.091.4.275v6.917c0 .181-.133.275-.4.275v.275h2.596v-.278a.68.68 0 0 1-.327-.069.22.22 0 0 1-.13-.203V39.13h2.987c.204 0 .36.033.476.099.11.066.168.217.168.45h.272v-2.19h-.272c0 .142-.055.233-.168.274a1.45 1.45 0 0 1-.476.06h-2.986v-1.886h4.936c.212 0 .363.028.451.083.085.057.13.14.13.25h.274v-.003zm11.053-1.488a6.096 6.096 0 0 0-1.705-.25 6.13 6.13 0 0 0-1.708.25 5.406 5.406 0 0 0-1.584.754 4.102 4.102 0 0 0-1.174 1.273c-.306.512-.457 1.12-.457 1.82 0 .702.151 1.307.457 1.821a4.07 4.07 0 0 0 1.174 1.27 4.865 4.865 0 0 0 1.584.73 6.64 6.64 0 0 0 1.708.23c.558 0 1.13-.077 1.705-.23a4.828 4.828 0 0 0 1.586-.73 4.058 4.058 0 0 0 1.175-1.27c.305-.514.459-1.12.459-1.82 0-.702-.154-1.307-.46-1.82a4.037 4.037 0 0 0-1.174-1.274 5.312 5.312 0 0 0-1.586-.754zm-2.866 1.337a3.707 3.707 0 0 1 1.16-.184c.386 0 .773.057 1.161.184.385.118.734.294 1.048.525.308.228.56.509.756.844.19.336.289.718.289 1.142 0 .423-.096.805-.289 1.14a2.75 2.75 0 0 1-.756.845 3.682 3.682 0 0 1-1.048.528 3.868 3.868 0 0 1-1.16.182c-.388 0-.776-.06-1.16-.182a3.611 3.611 0 0 1-1.049-.528 2.716 2.716 0 0 1-.756-.844 2.27 2.27 0 0 1-.289-1.141c0-.427.1-.809.29-1.142.194-.332.445-.616.755-.844.311-.228.66-.404 1.048-.525zm14.088-1.493h-3.319v.275c.193 0 .36.044.503.129.143.088.297.242.473.465l2.464 3.137-2.664 3.397a.846.846 0 0 1-.328.275c-.11.04-.258.06-.45.06v.278h2.804v-.278c-.192 0-.291-.071-.291-.212 0-.082.038-.17.115-.266a8.25 8.25 0 0 0 .19-.25l1.51-1.893 1.402 1.83c.091.112.168.21.237.302a.44.44 0 0 1 .099.244c0 .163-.083.242-.242.242v.278h3.06v-.278a.64.64 0 0 1-.324-.082 1.592 1.592 0 0 1-.267-.198 1.553 1.553 0 0 1-.203-.237c-.058-.082-.105-.154-.146-.214l-2.53-3.229 2.635-3.261a.606.606 0 0 1 .297-.198c.118-.03.3-.044.539-.044v-.275h-3.091v.275c.275 0 .41.066.41.198 0 .052-.042.13-.122.228-.082.102-.178.223-.288.366l-1.265 1.6-1.249-1.57a2.318 2.318 0 0 1-.22-.319.554.554 0 0 1-.085-.258c0-.08.038-.14.115-.185a.521.521 0 0 1 .237-.06v-.275l-.006.003z" fill="#fff"/></svg>