<svg width="151" height="33" fill="none" xmlns="http://www.w3.org/2000/svg"><path fill-rule="evenodd" clip-rule="evenodd" d="M144.853.328c4.046 0 5.943 3.793 5.943 5.816 0 1.897-1.264 5.944-5.943 5.944H16.376V31.94H.948V.328h143.905zM126.644 4.12c1.011 0 2.023.885 2.023 1.77 0 1.012-1.012 2.024-2.023 2.024H16.502V4.12h110.142zM57.853 15.25c3.287 0 5.564 2.276 5.564 6.07 0 2.15-2.024 4.3-3.541 4.805l4.173 5.944H53.047l-2.782-5.059h-2.529v5.059H38.38V15.376l19.474-.127zm-5.564 3.794c1.011 0 1.896.885 1.896 1.896 0 1.139-.885 1.897-1.896 1.897h-4.68V19.17l4.68-.126zm36.798-3.794v3.794H78.338v2.655h10.37v3.794h-10.37v2.655h11.508v3.794H68.6V15.249h20.486zm15.554 0v12.898h9.357v3.794H95.03V15.249h9.611zm21.623 0v12.898h9.231v3.794h-18.841V15.249h9.61zm-94.208 0v16.692h-9.358V15.249h9.358zm106.348 0h9.357v16.692h-9.357V15.249z" fill="#fff"/></svg>